<svg width="336" height="88" viewBox="0 0 336 88" fill="none" xmlns="http://www.w3.org/2000/svg">
<path d="M59.3438 72.0938H41.7656L17.2031 48.375C15.8281 47.125 15.1875 45.5625 15.2812 43.6875C15.3438 42.8125 15.5625 42 15.9375 41.25C16.3438 40.4688 16.8906 39.8125 17.5781 39.2812L39.8438 21.3281H59.3438L30.6562 44.4375L59.3438 72.0938ZM12.1875 72.0938H0V0H12.1875V72.0938ZM119.625 54.9844C119.625 57.0781 119.359 58.9688 118.828 60.6562C118.297 62.3125 117.594 63.7812 116.719 65.0625C115.844 66.3125 114.828 67.3906 113.672 68.2969C112.516 69.1719 111.297 69.8906 110.016 70.4531C108.766 71.0156 107.484 71.4375 106.172 71.7188C104.891 71.9688 103.672 72.0938 102.516 72.0938H80.5312C78.8438 72.0938 77 71.7969 75 71.2031C73 70.6094 71.1406 69.6406 69.4219 68.2969C67.7344 66.9219 66.3125 65.1562 65.1562 63C64.0312 60.8125 63.4688 58.1406 63.4688 54.9844V38.4844C63.4688 35.3594 64.0312 32.7188 65.1562 30.5625C66.3125 28.375 67.7344 26.6094 69.4219 25.2656C71.1406 23.8906 73 22.9062 75 22.3125C77 21.7188 78.8438 21.4219 80.5312 21.4219H102.516C105.641 21.4219 108.297 21.9844 110.484 23.1094C112.672 24.2344 114.438 25.6562 115.781 27.375C117.125 29.0625 118.094 30.9062 118.688 32.9062C119.312 34.9062 119.625 36.7656 119.625 38.4844V54.9844ZM107.438 38.5781C107.438 36.8906 107.016 35.6406 106.172 34.8281C105.328 34.0156 104.109 33.6094 102.516 33.6094H80.625C79 33.6094 77.7656 34.0312 76.9219 34.875C76.0781 35.6875 75.6562 36.8906 75.6562 38.4844V54.9844C75.6562 56.5781 76.0781 57.7969 76.9219 58.6406C77.7656 59.4844 79 59.9062 80.625 59.9062H102.516C104.172 59.9062 105.406 59.4844 106.219 58.6406C107.031 57.7969 107.438 56.5781 107.438 54.9844V38.5781ZM175.266 72.0938H163.078V38.4844C163.078 36.8906 162.656 35.6875 161.812 34.875C160.969 34.0312 159.719 33.6094 158.062 33.6094H142.219V72.0938H130.031V27.4688C130.031 26.625 130.188 25.8438 130.5 25.125C130.812 24.375 131.25 23.7344 131.812 23.2031C132.375 22.6406 133.031 22.2031 133.781 21.8906C134.531 21.5781 135.328 21.4219 136.172 21.4219H158.156C159.844 21.4219 161.656 21.7188 163.594 22.3125C165.531 22.9062 167.375 23.8594 169.125 25.1719V21.4219H185.625C186.781 21.4219 188 21.5625 189.281 21.8438C190.562 22.0938 191.828 22.5 193.078 23.0625C194.359 23.625 195.578 24.3594 196.734 25.2656C197.891 26.1406 198.906 27.2188 199.781 28.5C200.656 29.75 201.359 31.2031 201.891 32.8594C202.422 34.5156 202.688 36.3906 202.688 38.4844V72.0938H190.5V38.4844C190.5 36.8906 190.094 35.6875 189.281 34.875C188.5 34.0312 187.281 33.6094 185.625 33.6094H174.656C175.062 35.1094 175.266 36.7344 175.266 38.4844V72.0938ZM269.812 54.9844C269.812 57.0781 269.547 58.9688 269.016 60.6562C268.484 62.3125 267.781 63.7812 266.906 65.0625C266.031 66.3125 265.016 67.3906 263.859 68.2969C262.703 69.1719 261.484 69.8906 260.203 70.4531C258.953 71.0156 257.688 71.4375 256.406 71.7188C255.125 71.9688 253.906 72.0938 252.75 72.0938H230.766V59.9062H252.75C254.375 59.9062 255.594 59.4844 256.406 58.6406C257.219 57.7969 257.625 56.5781 257.625 54.9844V38.5781C257.625 36.8906 257.203 35.6406 256.359 34.8281C255.547 34.0156 254.344 33.6094 252.75 33.6094H230.859C229.203 33.6094 227.953 34.0312 227.109 34.875C226.266 35.6875 225.844 36.8906 225.844 38.4844V87.9375H213.656V38.4844C213.656 36.3906 213.922 34.5156 214.453 32.8594C214.984 31.2031 215.688 29.75 216.562 28.5C217.469 27.2188 218.5 26.1406 219.656 25.2656C220.812 24.3594 222.016 23.625 223.266 23.0625C224.547 22.5 225.828 22.0938 227.109 21.8438C228.422 21.5625 229.641 21.4219 230.766 21.4219H252.75C254.844 21.4219 256.719 21.6875 258.375 22.2188C260.031 22.75 261.484 23.4531 262.734 24.3281C264.016 25.2031 265.094 26.2188 265.969 27.375C266.875 28.5312 267.609 29.75 268.172 31.0312C268.734 32.2812 269.141 33.5469 269.391 34.8281C269.672 36.1094 269.812 37.3281 269.812 38.4844V54.9844ZM335.344 54.9844C335.344 57.0781 335.078 58.9688 334.547 60.6562C334.016 62.3125 333.312 63.7812 332.438 65.0625C331.562 66.3125 330.547 67.3906 329.391 68.2969C328.234 69.1719 327.016 69.8906 325.734 70.4531C324.484 71.0156 323.203 71.4375 321.891 71.7188C320.609 71.9688 319.391 72.0938 318.234 72.0938H296.25C294.562 72.0938 292.719 71.7969 290.719 71.2031C288.719 70.6094 286.859 69.6406 285.141 68.2969C283.453 66.9219 282.031 65.1562 280.875 63C279.75 60.8125 279.188 58.1406 279.188 54.9844V38.4844C279.188 35.3594 279.75 32.7188 280.875 30.5625C282.031 28.375 283.453 26.6094 285.141 25.2656C286.859 23.8906 288.719 22.9062 290.719 22.3125C292.719 21.7188 294.562 21.4219 296.25 21.4219H318.234C321.359 21.4219 324.016 21.9844 326.203 23.1094C328.391 24.2344 330.156 25.6562 331.5 27.375C332.844 29.0625 333.812 30.9062 334.406 32.9062C335.031 34.9062 335.344 36.7656 335.344 38.4844V54.9844ZM323.156 38.5781C323.156 36.8906 322.734 35.6406 321.891 34.8281C321.047 34.0156 319.828 33.6094 318.234 33.6094H296.344C294.719 33.6094 293.484 34.0312 292.641 34.875C291.797 35.6875 291.375 36.8906 291.375 38.4844V54.9844C291.375 56.5781 291.797 57.7969 292.641 58.6406C293.484 59.4844 294.719 59.9062 296.344 59.9062H318.234C319.891 59.9062 321.125 59.4844 321.938 58.6406C322.75 57.7969 323.156 56.5781 323.156 54.9844V38.5781Z" fill="black"/>
</svg>
